PathFileType	4	(X/Y/Z)	C:/Users/beibeiliu/ov580/test_trc\sequence.29_training_dense_left.trc
DataRate	CameraRate	NumFrames	NumMarkers	Units	OrigDataRate	OrigDataStartFrame	OrigNumFrames
120	120	20	19	mm	120	149	396
Frame#	Time	ThumbCMC			ThumbMCP			ThumbIP			ThumbTip			IndexMCP			IndexPIP			IndexTip			MiddleMCP			MiddlePIP			MiddleTip			RingMCP			RingPIP			RingTip			PinkyMCP			PinkyPIP			PinkyTip			BackHand1			BackHand2			BackHand3	
		X0	Y0	Z0	X1	Y1	Z1	X2	Y2	Z2	X3	Y3	Z3	X4	Y4	Z4	X5	Y5	Z5	X6	Y6	Z6	X7	Y7	Z7	X8	Y8	Z8	X9	Y9	Z9	X10	Y10	Z10	X11	Y11	Z11	X12	Y12	Z12	X13	Y13	Z13	X14	Y14	Z14	X15	Y15	Z15	X16	Y16	Z16	X17	Y17	Z17	X18	Y18	Z18	
148	1.23333	-176.692	42.8357	36.2057	-167.277	60.4171	13.0714	-166.422	73.1691	-4.18975	-163	85.0675	-24.1041	-206.882	85.9556	-2.92457	-213.753	100.585	-19.121	-221.22	116.815	-36.2153	-219.771	80.9048	-15.5157	-221.843	95.4481	-36.9503	-223.436	105.069	-62.7876	-229.77	61.1639	-25.9482	-219.497	69.045	-49.0234	-197.773	62.3767	-64.8174	-233.991	43.0618	-25.0852	-222.993	50.1278	-46.3495	-203.639	44.2165	-60.2211	-229.174	39.6863	14.7112	-223.203	23.2044	41.2772	-208.829	48.4159	36.5107	
149	1.24167	-184.214	49.3658	35.8985	-169.459	64.9016	12.7511	-171.72	78.9513	-10.8234	-175.245	85.1859	-32.5875	-217.981	92.1722	-5.71816	-223.878	101.459	-19.7156	-228.802	120.41	-39.0868	-226.037	80.5923	-15.9124	-229.603	92.7761	-39.0701	-223.426	105.057	-68.0462	-227.447	62.4993	-27.0296	-211.123	62.2217	-50.3432	-189.803	50.4171	-52.904	-231.226	40.4231	-26.167	-217.508	42.6545	-45.7718	-191.261	36.0835	-44.8353	-234.546	38.9397	14.9797	-228.517	21.7665	37.3917	-214.641	52.5807	39.3425	
150	1.25	-191.743	58.0111	34.8096	-178.212	71.5028	7.95108	-175.871	79.7562	-10.7106	-178.151	83.5261	-35.1009	-225.242	92.1507	-4.73932	-230.122	108.743	-22.2347	-237.073	117.31	-40.9747	-232.978	79.7697	-22.8399	-230.549	90.6725	-47.688	-224.114	99.1733	-67.4996	-224.098	63.5658	-30.9257	-201.007	58.6817	-44.642	-180.956	47.8222	-31.9585	-227.308	38.9884	-31.6159	-203.108	41.4688	-39.4173	-181.03	36.5837	-25.4577	-235.214	39.0649	17.1151	-229.292	24.9402	36.7545	-222.754	55.0423	39.5685	
151	1.25833	-195.621	68.4524	34.9675	-185.7	75.2162	7.42616	-182.323	84.6813	-17.2981	-185.964	78.9641	-38.4424	-232.23	92.5869	-8.16841	-236.185	105.081	-27.1575	-241.859	115.822	-47.6497	-234.698	76.0517	-25.3137	-231.281	87.7239	-50.506	-219.707	96.5551	-74.127	-219.857	59.4839	-34.9784	-193.22	58.7521	-38.011	-178.139	51.077	-20.7232	-217.669	40.9984	-31.624	-193.813	41.7753	-32.5693	-180.796	41.2085	-12.7731	-239.857	38.3604	10.203	-231.701	24.7786	34.0682	-230.172	55.4817	31.9892	
152	1.26667	-202.922	72.5309	33.6199	-187.206	81.2954	9.39508	-184.653	85.8209	-16.1379	-184.976	79.2359	-38.8687	-238.408	93.4996	-14.7957	-241.519	105.307	-33.2958	-246.065	112.216	-51.3153	-236.689	73.9508	-31.29	-231.305	85.9628	-53.3766	-219.056	91.9374	-75.9537	-217.854	58.2225	-32.9637	-190.857	61.0483	-35.3197	-177.528	54.8366	-8.73827	-209.885	36.9373	-31.9037	-188.793	48.3529	-24.2401	-183.987	48.682	-0.572826	-235.933	35.5064	9.91758	-231.113	27.7749	35.2286	-233.267	54.2358	32.0149	
153	1.275	-210.031	73.6887	33.0897	-192.811	88.6001	7.51234	-190.474	84.2716	-16.9305	-184.922	77.6814	-36.3991	-241.699	84.8463	-18.898	-245.893	100.614	-41.0722	-247.426	106.697	-61.8421	-237.263	73.2892	-36.3766	-230.126	80.0269	-57.6243	-216.97	92.677	-77.4466	-213.643	53.1781	-34.0773	-185.161	64.7006	-30.0564	-179.332	63.5753	-5.82548	-204.386	41.2527	-27.7407	-182.97	50.3089	-16.6068	-184.688	51.9989	5.98896	-233.871	32.8884	3.76695	-228.774	23.9603	34.3715	-236.978	51.9937	30.6979	
154	1.28333	-216.883	74.9222	32.6618	-198.363	92.1637	6.46419	-190.717	88.4529	-19.4327	-185.412	74.1235	-33.8417	-244.399	85.0723	-26.4826	-242.737	91.4656	-46.627	-242.32	100.307	-64.7377	-231.953	65.738	-38.2714	-225.483	79.3234	-58.3073	-210.885	92.1475	-79.409	-210.404	56.9001	-30.972	-182.133	66.9612	-23.747	-181.189	65.2234	2.06538	-197.166	39.767	-25.2996	-181.953	57.3638	-11.7667	-185.581	54.6739	9.90721	-230.85	32.2759	5.99129	-226.505	23.4644	34.5518	-239.03	52.6801	25.5754	
155	1.29167	-223.873	73.8422	36.5311	-205.585	87.7966	9.37946	-193.588	89.6444	-12.2145	-181.706	77.857	-32.2627	-243.126	80.0579	-25.2697	-241.395	90.5783	-48.311	-237.018	98.7757	-68.3373	-228.453	64.243	-37.818	-217.883	80.6876	-59.0731	-204.936	90.2518	-75.423	-205.157	58.072	-29.3775	-181.515	70.7656	-20.6565	-185.189	69.1936	8.27951	-190.785	46.4293	-21.0121	-178.603	58.6515	-5.49906	-187.064	58.3786	17.1707	-228.635	29.6144	5.81001	-228.812	21.7577	35.4752	-241.265	43.7882	25.8385	
156	1.3	-230.799	71.3579	34.4181	-212.62	87.6468	13.9244	-197.539	91.7448	-8.66286	-180.979	85.5357	-23.7843	-238.183	72.8583	-30.7446	-234.609	83.8347	-48.6306	-228.776	96.1166	-66.3956	-222.398	61.5122	-39.8753	-213.785	76.272	-55.986	-198.279	91.9638	-72.3924	-197.051	57.2301	-28.3068	-185.044	77.2796	-12.6181	-189.656	70.1074	14.1101	-190.631	45.855	-15.501	-180.105	63.5482	-2.51558	-187.432	60.1507	23.1271	-222.88	26.6884	4.94515	-227.021	20.2741	32.9387	-240.888	39.9465	20.3264	
157	1.30833	-237.748	67.6556	39.0328	-218.323	87.4375	20.8797	-201.895	92.7432	-2.51673	-185.086	84.6284	-16.5912	-240.335	72.6764	-27.3848	-232.583	84.2421	-44.4813	-225.082	99.9579	-63.1641	-220.151	58.8838	-34.4201	-212.339	79.5013	-52.4904	-193.954	98.4786	-66.016	-194.843	57.4707	-22.9787	-186.394	78.6386	-8.24493	-193.762	69.9772	18.4595	-184.908	49.5493	-12.278	-180.657	67.3946	2.88962	-195.46	62.1757	23.4776	-217.916	22.9537	4.45958	-223.476	14.3556	32.2921	-244.018	37.1022	23.3596	
158	1.31667	-239.936	60.8485	36.7856	-223.645	86.3719	19.7601	-208.031	89.5124	4.28771	-189.865	89.5773	-10.3469	-237.295	69.4224	-28.4258	-230.347	84.4137	-44.0597	-221.684	99.0369	-58.3321	-219.943	63.1653	-35.5921	-212.13	78.5907	-47.6817	-195.477	99.7364	-57.1656	-193.888	62.5187	-20.955	-189.257	81.6591	-3.4922	-194.743	72.8238	21.3268	-182.751	52.5561	-8.14624	-179.412	67.7458	8.75011	-196.466	59.1334	29.3113	-216.591	21.8589	9.2228	-221.598	10.012	32.7162	-243.84	31.131	20.7797	
159	1.325	-244.184	55.3336	40.3971	-229.144	83.0209	21.0637	-212.26	89.3334	3.11182	-193.142	90.0769	-8.45395	-240.521	67.23	-23.6923	-230.906	85.508	-43.2713	-221.122	98.4011	-52.7187	-217.822	58.9783	-30.6125	-207.952	81.2584	-44.8127	-196.529	105.923	-49.8575	-194.535	60.4299	-15.6826	-193.251	82.8586	1.07878	-201.604	71.159	24.7911	-185.554	53.7797	-4.48681	-186.416	69.6884	12.8343	-200.842	62.3789	31.3996	-214.583	17.8704	8.92973	-220.245	6.62172	30.8787	-240.297	25.1521	19.1006	
160	1.33333	-245.253	48.2006	41.5156	-235.012	77.2831	24.7623	-218.194	89.13	7.41801	-196.264	90.982	-7.07328	-236.86	63.8701	-25.3433	-232.581	81.5966	-38.6575	-223.906	101.952	-51.5636	-218.731	61.974	-29.9676	-210.453	83.9769	-40.3071	-196.956	110.946	-43.4384	-197.7	60.1325	-12.5958	-192.361	82.6478	8.68911	-202.407	71.0975	28.1801	-183.739	53.2295	-0.0311786	-188.025	70.185	21.4642	-206.283	56.2922	34.6099	-215.251	19.8686	6.34145	-220.835	7.02865	32.7626	-242.418	20.6918	21.1622	
161	1.34167	-247.037	44.2653	41.128	-239.867	77.1691	26.309	-222.253	86.2314	8.69013	-202.65	91.8282	-4.27077	-241.554	63.0054	-21.9674	-237.032	80.5172	-35.4924	-225.956	102.55	-47.6715	-218.038	59.1298	-25.2115	-210.218	83.5518	-37.4142	-201.049	110.304	-39.4051	-196.131	63.8348	-10.8359	-198.687	82.9959	8.1966	-206.115	67.5432	32.2486	-185.169	53.7441	2.07535	-191.115	71.049	19.3819	-203.108	56.1231	37.569	-211.266	19.5113	7.72304	-213.748	4.80623	31.0024	-236.571	17.9776	19.3503	
162	1.35	-247.561	41.3223	40.4519	-242.493	73.0925	25.4319	-228.689	86.2688	11.3745	-210.164	89.9757	-1.68653	-243.528	62.7168	-21.2654	-235.353	84.3697	-35.9851	-230.561	105.193	-45.2802	-219.401	62.9225	-26.1912	-216.238	89.7014	-34.7571	-208.477	114.577	-33.6007	-200.469	68.5612	-7.43674	-199.634	83.2287	12.4601	-208.082	69.194	34.2969	-186.035	59.5223	3.51483	-190.946	71.9821	24.9956	-206.716	52.051	39.2811	-210.208	18.5399	9.9874	-214.205	4.52847	30.7151	-240.633	16.7193	22.2402	
163	1.35833	-249.414	40.8757	40.1445	-245.106	68.8561	27.6607	-229.854	83.832	6.43493	-214.019	90.6945	-3.03902	-242.205	64.4605	-19.6657	-236.855	85.7383	-32.8155	-233.761	105.108	-40.4347	-221.468	65.5073	-23.3762	-215.129	88.3208	-30.3842	-212.393	116.16	-28.7337	-200.448	66.7542	-4.4903	-203.333	85.1672	14.6103	-213.79	67.0043	36.0529	-189.512	60.0029	5.91774	-195.27	73.8915	25.5045	-205.588	56.0849	38.7178	-208.503	18.0317	10.0844	-215.49	4.14644	33.2588	-239.043	16.2698	23.487	
164	1.36667	-247.317	38.9452	39.4398	-244.944	67.2521	26.6411	-229.809	78.1535	7.34385	-215.528	89.1819	-5.82561	-243.041	66.7015	-20.0697	-240.543	86.808	-30.3209	-235.443	106.308	-36.3033	-223.04	65.4436	-20.8604	-217.034	92.2542	-28.1145	-211.581	120.409	-26.274	-201.561	69.9841	-1.90779	-202.117	85.4667	20.5141	-213.281	67.5286	37.5028	-187.053	61.2419	7.87228	-198.914	74.3049	27.9296	-210.623	52.6989	38.4359	-206.118	21.0929	11.7547	-209.082	3.15731	34.3785	-236.081	16.4648	19.0257	
165	1.375	-248.453	38.1476	38.935	-244.303	64.5846	24.9708	-229.982	77.9101	5.53966	-213.84	85.8746	-6.15957	-243.033	63.4366	-17.7998	-237.026	88.042	-29.0028	-233.708	108.191	-35.3403	-218.953	67.5528	-20.7015	-217.634	95.1467	-27.5691	-217.399	120.928	-26.0692	-204.964	72.4744	-0.401914	-207.45	85.0304	24.4371	-214.62	64.8396	38.8988	-190.715	65.6613	8.53503	-194.234	75.9089	29.822	-207.39	55.343	38.4205	-203.43	20.1394	10.2697	-209.637	4.75445	30.3438	-231	14.3221	18.8641	
166	1.38333	-248.434	37.9608	39.4483	-246.078	66.5361	24.6633	-232.917	80.5823	4.3952	-212.89	82.9965	-5.22276	-241.564	62.8315	-16.9686	-238.528	87.5471	-28.5812	-239.431	111.721	-35.4233	-219.937	69.5572	-22.5596	-218.857	94.324	-27.5261	-216.626	121.346	-27.702	-199.139	71.8353	-0.383552	-207.248	84.9509	22.7896	-210.189	63.7878	39.5558	-187.092	68.5675	10.4702	-199.203	74.6256	30.2617	-205.273	53.9986	41.4072	-201.023	20.6491	10.8538	-208.5	5.40975	32.8275	-233.504	16.9394	18.8281	
167	1.39167	-246.854	35.2907	42.0781	-243.666	64.4993	21.8909	-233.487	79.1902	6.86923	-212.485	86.5384	-6.51937	-239.953	64.9666	-20.8755	-236.693	86.9425	-29.6039	-236.216	109.723	-35.0404	-216.19	67.9423	-21.7913	-217.09	91.085	-27.6859	-213.43	120.413	-28.6809	-201.563	70.0676	-0.119573	-205.962	85.212	24.5918	-210.519	60.8628	39.7071	-188.465	66.202	8.79539	-194.493	76.0536	31.0211	-203.296	54.4264	43.4358	-199.584	22.1604	9.05803	-204.337	6.07641	33.2126	-230.448	16.83	18.0945	
